# File created by Blade
# Date/Time:  Wed Apr 08 14:10:35 2015
# Frame Rate: 120.000 fps
#------------------------------------------------------
:FULLY-SPECIFIED
:DEGREES
302
root 1.593045 32.133160 -13.469606 16.768867 6.569328 -1.411859
Spine -4.226863 -8.192299 0.027446
Head 1.710451 -5.250856 3.893228
LeftShoulder -6.561208 39.671138 15.487265
LeftArm 69.143451 23.770841 -60.137016
LeftForeArm -3.679989 -0.000000 16.347215
LeftHand 9.046990 -0.000000 -4.656191
LeftHandThumb1 -26.253704 0.000000 33.147579
RightShoulder 0.848783 -3.916488 -15.838989
RightArm 22.344820 -27.427279 83.285770
RightForeArm -10.369344 -0.000000 24.368503
RightHand 8.327158 -0.000000 1.892886
RightHandThumb1 -24.326973 -0.000000 -32.862282
LeftUpLeg -6.711912 -3.359285 -2.034237
LeftLeg 6.663566 -0.000000 -0.000000
LeftFoot -16.945044 8.921285 -15.301008
LeftToeBase -11.764991 -0.000000 0.000000
RightUpLeg -46.129777 -0.745775 0.614455
RightLeg 3.003196 -0.000000 -0.000000
RightFoot 37.015033 -18.870097 2.430151
RightToeBase 4.514336 -0.000000 -0.000000
303
root 1.572768 32.099881 -13.268648 16.919248 6.559996 -1.378783
Spine -4.192442 -8.223345 0.074983
Head 1.415552 -5.169881 3.854888
LeftShoulder -6.553998 39.651102 15.546111
LeftArm 69.180476 23.791762 -60.075338
LeftForeArm -3.621964 -0.000000 16.337182
LeftHand 9.064378 -0.000000 -4.673939
LeftHandThumb1 -26.253704 0.000000 33.147579
RightShoulder 0.872429 -3.902421 -15.903823
RightArm 22.346216 -27.445378 83.345993
RightForeArm -10.783724 -0.000000 24.461359
RightHand 8.246850 -0.000000 1.509796
RightHandThumb1 -24.326973 -0.000000 -32.862282
LeftUpLeg -6.607914 -3.540559 -2.002671
LeftLeg 6.908866 -0.000000 -0.000000
LeftFoot -17.249095 9.109015 -15.180903
LeftToeBase -11.841316 -0.000000 0.000000
RightUpLeg -46.180746 -0.861839 0.638557
RightLeg 3.125733 -0.000000 -0.000000
RightFoot 36.676411 -18.784639 2.429800
RightToeBase 4.648709 -0.000000 -0.000000
304
root 1.548509 32.065621 -13.065710 17.109157 6.534034 -1.348623
Spine -4.195611 -8.228672 0.112123
Head 1.116924 -5.118803 3.844344
LeftShoulder -6.526547 39.643611 15.629159
LeftArm 69.233316 23.812537 -59.959114
LeftForeArm -3.652173 -0.000000 16.318158
LeftHand 9.077621 0.000000 -4.642199
LeftHandThumb1 -26.253704 0.000000 33.147579
RightShoulder 0.868846 -3.854335 -15.917318
RightArm 22.346322 -27.507900 83.371526
RightForeArm -10.926022 -0.000000 24.517222
RightHand 8.554132 -0.000000 1.806530
RightHandThumb1 -24.326973 -0.000000 -32.862282
LeftUpLeg -6.524833 -3.760733 -1.960926
LeftLeg 7.125886 -0.000000 -0.000000
LeftFoot -17.496208 9.260015 -15.285201
LeftToeBase -12.293993 -0.000000 0.000000
RightUpLeg -46.307902 -0.928826 0.636510
RightLeg 3.348988 -0.000000 -0.000000
RightFoot 36.396611 -18.824366 2.580096
RightToeBase 4.349295 -0.000000 -0.000000
305
root 1.521051 32.030605 -12.859716 17.306487 6.513603 -1.328168
Spine -4.193417 -8.240268 0.158740
Head 0.775185 -5.059786 3.842167
LeftShoulder -6.476394 39.523520 15.746903
LeftArm 69.146288 23.888066 -59.912661
LeftForeArm -3.621776 -0.000000 16.309457
LeftHand 9.145675 -0.000000 -4.495672
LeftHandThumb1 -26.253704 0.000000 33.147579
RightShoulder 0.853753 -3.848985 -15.940476
RightArm 22.369973 -27.612515 83.364747
RightForeArm -11.220851 -0.000000 24.618292
RightHand 8.534559 -0.000000 1.543268
RightHandThumb1 -24.326973 -0.000000 -32.862282
LeftUpLeg -6.447759 -3.951679 -1.909809
LeftLeg 7.349610 -0.000000 -0.000000
LeftFoot -17.795838 9.513932 -15.131390
LeftToeBase -12.394482 -0.000000 0.000000
RightUpLeg -46.492439 -0.939180 0.599551
RightLeg 3.732802 -0.000000 -0.000000
RightFoot 36.042384 -18.899452 2.711584
RightToeBase 3.981590 -0.000000 -0.000000
306
root 1.494844 31.994933 -12.651257 17.534377 6.491247 -1.291047
Spine -4.213517 -8.263306 0.188296
Head 0.418418 -4.885457 3.765809
LeftShoulder -6.456994 39.380786 15.848340
LeftArm 69.047889 23.991901 -59.812721
LeftForeArm -3.613182 -0.000000 16.326975
LeftHand 9.087634 -0.000000 -4.461089
LeftHandThumb1 -26.253704 0.000000 33.147579
RightShoulder 0.835146 -3.809236 -15.961456
RightArm 22.316235 -27.625749 83.436053
RightForeArm -11.670938 0.000000 24.732040
RightHand 8.459971 0.000000 1.297622
RightHandThumb1 -24.326973 -0.000000 -32.862282
LeftUpLeg -6.340238 -4.239571 -1.862486
LeftLeg 7.465171 -0.000000 -0.000000
LeftFoot -18.019887 9.743248 -15.144779
LeftToeBase -12.718772 -0.000000 0.000000
RightUpLeg -46.743676 -0.946553 0.526510
RightLeg 4.257006 -0.000000 -0.000000
RightFoot 35.705363 -19.064947 3.027003
RightToeBase 3.147250 -0.000000 -0.000000
